<svg id="a5d255df-2eed-45c8-b41f-81070cba24b3" data-name="Layer 1" xmlns="http://www.w3.org/2000/svg" viewBox="0 0 1517.14 1517.14"><defs><style>.b504b4db-6877-4a39-93af-0b11cda8af49{fill:none;}</style></defs><rect class="b504b4db-6877-4a39-93af-0b11cda8af49" width="1517.14" height="1517.14"/><path d="M1302.61,929.49q0,178,0,356c0,11.8-.18,23.64-1.18,35.39-.74,8.69-2,9.57-10.56,9.8a184.23,184.23,0,0,1-22.87-1.18,6,6,0,0,1-4.21-3.63,50.45,50.45,0,0,1-1.3-11.82q-.09-377.47-.11-755c0-6-.14-12.08-1.41-17.86-3.74-16.92-16.53-27.79-34-29.72-20.75-2.3-36.86,7.82-42.27,28-2.88,10.8-5,22.2-5,33.33q-.46,337.73-.31,675.45c0,14.17-.21,28.34.21,42.5a172.51,172.51,0,0,0,2.53,22.27c1.92,11.79-2.11,17.67-13.89,18.52a142.77,142.77,0,0,1-20.37,0c-5.13-.36-8-4-8.32-9-.3-5.47,0-11,0-16.46q0-214,.12-428c0-54.16.36-108.31.33-162.47q-.06-80.49-.65-161a101.85,101.85,0,0,0-1.67-14.83c-1.46-9.32-6.64-16.24-14.61-21a69.46,69.46,0,0,0-12.89-6.48c-10.47-3.56-14.2-11.43-14.53-21.5a55.79,55.79,0,0,1,1.23-12.87c1.55-7.63,6.25-10.69,13.59-7.7,13.66,5.57,27.25,11.48,40.28,18.35,7.09,3.74,12.36,4.28,19-.62,17.16-12.55,36.38-19.32,57.94-17.48,29.83,2.55,68.11,21.24,73.76,67.6a200,200,0,0,1,1.09,24.37Q1302.67,746,1302.61,929.49Z" transform="translate(-141.43 -141.43)"/><path d="M671,1119.15q0-50.25,0-100.5c.06-30.83-.11-61.66.5-92.48.4-20.38-7.77-34.53-26.8-42.26a11.15,11.15,0,0,1-4.71-3.5c-6.34-8.85-9.26-18.71-7.61-29.6.93-6.1,3.54-8.38,9.89-8.21,11.54.31,22.09,4.51,32.2,9.63,16.44,8.32,27.9,21.27,34.44,38.52.42,1.09.94,2.13,1.4,3.19,1.76,4,3.87,5.16,8.42,3,15.69-7.59,31.49-15,48.82-18.37,32.49-6.24,61.67,1.75,88.22,20.66,5.55,4,10.7,8.47,15.94,12.85,7.22,6,10.67,6.09,17-.62,16.08-17,35.55-27.88,58.49-32.08,40.41-7.41,75.72,3.27,105.9,31,17.44,16,27.85,35.84,31,59.34a130.81,130.81,0,0,1,.88,16.45q.33,62.25.48,124.48.16,103.24.15,206.5c0,11.82-3.06,14.95-15,15.23-5.5.13-11,.25-16.49.05-6.9-.24-9.66-2.66-10.7-9.4a74.14,74.14,0,0,1-.83-11.43c0-107.83.13-215.66-.15-323.5-.07-27.23-11-49.62-35.72-62.56-35.93-18.79-91.9-6.92-104.58,43.51a70.63,70.63,0,0,0-2.05,16.77q-.4,71.75-.41,143.48,0,93.24.4,186.48c0,14.27-1.84,16.28-15.95,16.22-6.33,0-12.67-.09-19-.49-5.94-.38-8.17-2.88-8.56-8.9-.16-2.49-.15-5-.15-7.5q0-152-.06-304c0-13.47.67-27.15-1.38-40.36-4-25.94-20.2-42.5-44.85-50.45-36.83-11.88-78.88,8.19-90.76,43.72a99.78,99.78,0,0,0-4.77,30.82c-.34,107-.21,214-.22,321,0,14.8-1.6,16.4-16.27,16.18-5.66-.09-11.33-.1-17-.53-6.39-.49-9.15-3.38-9.7-9.84-.33-4-.38-8-.38-12q0-95.25,0-190.5Z" transform="translate(-141.43 -141.43)"/><path d="M257.23,928.63c11.2-9.23,21.41-18,32-26.33,33.59-26.22,71.3-43.25,113.73-48.54,39-4.87,76.18,2.46,111.58,19.12,34.91,16.42,65.3,38.58,87.79,70.5,18.09,25.69,29,54.29,32,85.44,1.92,20.34,2,40.89,2.06,61.35q.29,109.74-.16,219.49c0,5.37-1.66,10.77-2.87,16.08-.9,3.92-3.78,5.88-7.76,5.64-9.11-.56-18.24-1.1-27.29-2.19-1.46-.18-3.58-3.07-3.7-4.82-.69-10.29-1.17-20.6-1.18-30.91-.08-77-.24-154,0-231,.22-62.39-27-109.36-79.45-141.87-67.34-41.76-153.89-29.6-209.08,20.09-30.77,27.71-47.58,62.81-52.07,103.69-1.39,12.68-.87,25.6-.84,38.4.07,27.66.53,55.32.57,83q.1,75.26-.13,150.5a42.87,42.87,0,0,1-.83,7.89c-.91,4.82-4.12,7.83-8.83,8.2a107.33,107.33,0,0,1-18.37,0c-5.89-.55-9.2-5.17-9.69-12.68-.35-5.31-.18-10.66-.19-16,0-3.5.08-7,.09-10.5l.39-809c0-1.17,0-2.34,0-3.5.62-12.23,1.46-13.33,13.6-13.92a137.14,137.14,0,0,1,18.89.67c5.11.46,7.88,4,8.9,8.79a38.35,38.35,0,0,1,.89,7.91q-.15,219.73-.37,439.48C257,924.92,257.1,926.21,257.23,928.63Z" transform="translate(-141.43 -141.43)"/><path d="M1413.39,944.48q0-131,0-262c0-16.33.12-32.66.12-49,0-13.28-4.06-17.13-17.44-17-18.81.12-37.62.3-56.43.09-8.31-.09-11.79-3.72-12.18-11.94a166.72,166.72,0,0,1,.16-17.46c.38-6.61,2.9-9.56,9.6-9.73,20.31-.51,40.63-.7,61-.68,11.47,0,15.4-3.56,15.36-15-.09-22.66-.09-45.33-.14-68,0-4.32-.31-8.66,0-13,.53-7.11,3.08-10.37,9.9-10.87a131.71,131.71,0,0,1,22.9.34c6.68.67,8.91,3.5,9.27,10.19.5,9.31.87,18.64.84,28-.06,17.48-.37,35-.72,52.46-.22,11.25,3.88,15.67,15,15.73,23,.12,46,.32,69,.36,10,0,20-.38,30-.45,10.63-.07,14.4,3.26,15.2,14a89.85,89.85,0,0,1-.29,15.9c-.61,5.88-4.16,9.38-10.07,10-4.77.49-9.62.2-14.43.2-29.83,0-59.66-.16-89.48-.1-9.62,0-13.07,3.26-14.49,12.82a41.11,41.11,0,0,0-.33,6q.18,304,.49,607.92a75.39,75.39,0,0,0,2.48,19.69c5.61,20.36,22.91,31.48,43.16,28.44,21.21-3.18,34.18-18,34.23-39.35q.24-110.49.51-221a77.53,77.53,0,0,1,2.37-17.17c.41-1.76,3.27-4.15,5-4.18,10-.12,19.94.24,29.89.84,1.55.1,3.73,2.05,4.29,3.61a26.64,26.64,0,0,1,1.24,8.82q.11,111.24,0,222.47c0,13.08.25,26.28-5.34,38.73-9.18,20.45-26.07,32.17-45.42,41.44-46,22.07-102.87-10.82-112.48-53-3.23-14.17-3-28.41-3-42.7,0-23,.3-46,.32-69Q1413.44,1052.71,1413.39,944.48Z" transform="translate(-141.43 -141.43)"/><path d="M1040.53,536c0-15,0-28.44,0-41.92-.06-10.83,2.57-13.6,13.45-13.68,6.64-.05,13.28-.23,19.92,0,5.29.2,8.08,3.49,8.61,8.62a116.65,116.65,0,0,1,.85,12q.12,128.24.17,256.47c0,2.94.49,5.87.79,9.18,10.65,0,20.79-.12,30.93,0,4.79.08,10,0,13.42,4.06,1.79,2.14,3.48,5.12,3.59,7.79.9,22-19.42,47.56-41.11,51.69-7.75,1.48-14.88-1.23-21.28-5.42-15.82-10.35-26.13-24.39-28.34-43.64-.12-1.11-.39-2.2-.84-4.63-5.08,4.21-9.65,7.64-13.82,11.5-25.71,23.77-54.78,41.64-88.94,50.42-36.07,9.27-71.87,6.81-107.36-3.32-28.49-8.14-54.71-20.74-77.24-40.27-31.4-27.21-49.38-62.12-57.87-102.31-8.07-38.21-6-75.73,11.39-111,28.48-57.73,74.81-93.95,137.6-107.78,49.32-10.86,96.79-4,140.46,21.84,15.37,9.1,28.86,21.35,43.28,32.08C1031.85,530.38,1035.78,532.8,1040.53,536ZM885.58,803.12c8.23-.56,15.07-.73,21.83-1.53,42.13-5,76.87-23.69,103.31-57,41.33-52.08,40.4-128.25-2.73-178.94-36.39-42.78-83.4-60-138.91-54.32q-60.17,6.17-100.51,51.58C730.2,606.11,721.75,671,749.4,721.7,778.92,775.83,826,801.28,885.58,803.12Z" transform="translate(-141.43 -141.43)"/><path d="M661.53,720.17c-12.41,37.59-35.95,66.13-67.51,88.47-40.76,28.85-86.44,41.84-135.78,36.42-81.06-8.9-139.92-50.25-170.92-126.77-18.61-45.93-15.35-92,5.68-136.93,23.26-49.64,59.82-84.61,112.23-102.06a231.75,231.75,0,0,1,92.47-11.54c45.93,3.7,84.6,23.13,117.81,54.88,24.22,23.15,38.75,51.37,49,82.7a256.12,256.12,0,0,1,11.32,56.52c.77,8.25-3.18,13.37-11.47,14.53a52.51,52.51,0,0,1-7,.21q-157.74,0-315.48,0c-5.65,0-11.32.28-17,.77-6.86.59-8.68,3.13-7.21,10,3.59,16.69,9.3,32.6,18.45,47.09,25.44,40.32,62.54,63.61,108.67,72.88,36.55,7.35,71.86,2.71,105.28-14.08,26.69-13.4,47-34.09,64.31-58a22.59,22.59,0,0,0,1.75-2.43C625.9,714.93,638.33,712.7,661.53,720.17ZM475.22,636.52H617.71c2.17,0,4.35,0,6.5-.13,10-.83,12.65-4.39,9.82-14.11-6.3-21.62-16-41.62-30.26-59.1A165.36,165.36,0,0,0,394.37,524c-38.37,21.53-64.46,52.92-75.3,96.13-3.63,14.49-2.11,16.44,12.65,16.44Z" transform="translate(-141.43 -141.43)"/><path d="M897.69,435H232.76c-16.71,0-17.74-1-18.12-17.68a50.43,50.43,0,0,1,0-5.5c.64-7.06,3.3-10.11,10.28-11.43a44.82,44.82,0,0,1,8.42-.72q153.74,0,307.47,0,349.95.15,699.91.33,163,0,325.94-.32a75.84,75.84,0,0,1,7.92.79,8.3,8.3,0,0,1,1.48.24c6.76,1.9,9.74,8,9.27,18.93-.4,9.13-3.39,13.56-10.35,14.86a49.56,49.56,0,0,1-8.92.87q-63.49.07-127,0H897.69Z" transform="translate(-141.43 -141.43)"/><path d="M900.48,1364.62H1567c16.34,0,17.94,1.57,18,17.94a45.41,45.41,0,0,1-.41,7.47c-.91,5.65-4.51,8.86-10.57,9.42-3.81.35-7.65.53-11.47.53q-425.73-.17-851.44-.37-165.24-.06-330.48,0c-48.33,0-96.66.23-145,.34-2,0-4-.06-6-.24-11.46-1-15-5-15.12-16.64,0-1.5,0-3,0-4.5.21-8.56,3.57-12.51,12-13.76a54.41,54.41,0,0,1,8-.29h666Z" transform="translate(-141.43 -141.43)"/></svg>